<svg role="img" aria-label="I Endorse Nina Turner" viewBox="21 36 567 53" xmlns="http://www.w3.org/2000/svg" xmlns:xlink="http://www.w3.org/1999/xlink"><symbol id="a" overflow="visible"><path d="M10.8 0c.4 0 .7-.2.7-.6v-49.8c0-.4-.3-.7-.7-.7H3.6c-.3 0-.6.3-.6.7V-.6c0 .4.3.7.6.7zm0 0"/></symbol><symbol id="c" overflow="visible"><path d="M23.5-21.6c.4 0 .7-.3.7-.7v-7.2c0-.3-.3-.7-.7-.7H14c-.3 0-.7.4-.7.7v7.2c0 .4.4.7.7.7zM10.8 0c.4 0 .7-.3.7-.6v-49.9c0-.3-.3-.7-.7-.7H3.6c-.3 0-.6.4-.6.7v50c0 .2.3.5.6.5zm17-42.6c.3 0 .6-.3.6-.7v-7.2c0-.3-.3-.7-.6-.7H14c-.3 0-.7.4-.7.7v7.2c0 .4.4.7.7.7zm0 42.6c.3 0 .6-.3.6-.6v-7.2c0-.4-.3-.7-.6-.7H14c-.3 0-.7.3-.7.7v7.2c0 .3.4.6.7.6zm0 0"/></symbol><symbol id="d" overflow="visible"><path d="M28-51.2h-7.3c-.4 0-.7.4-.7.7V-28c0 .2 0 .3-.2.3-.1 0-.2 0-.3-.2L14-46l-.3-.1c-.2 0-.3 0-.3.3v26.5l.1.7 5.6 18c.1.3.3.5.6.5h8.9v-50.5l-.3-.4c-.1-.2-.3-.3-.4-.3zm-17.2 0H3.6c-.3 0-.6.4-.6.7v50c0 .3.3.6.7.6h7.1c.4 0 .7-.3.7-.7v-49.9c0-.3-.3-.7-.7-.7zm0 0"/></symbol><symbol id="e" overflow="visible"><path d="M10.7 0c.4 0 .7-.3.7-.6v-49.9c0-.3-.3-.7-.7-.7H3.6c-.3 0-.6.4-.6.7v50c0 .2.3.5.6.5zm5.8-51.2H14c-.4 0-.7.4-.7.7v7.2c0 .4.3.7.7.7h2.5c2 0 3.8 1.6 3.8 3.8v26.5c0 2.1-1.7 3.8-3.8 3.8H14c-.4 0-.7.3-.7.7v7.1c0 .4.3.7.7.7h2.5c6.8 0 12.3-5.5 12.3-12.3v-26.5a12.3 12.3 0 00-12.3-12.4zm0 0"/></symbol><symbol id="f" overflow="visible"><path d="M14-51c-6.3.8-11 6.2-11 12.6v25.7C3-6.3 7.7-.9 14 0l.5-.1c.2-.2.3-.3.3-.6V-8c0-.3-.2-.5-.5-.6a4.3 4.3 0 01-2.8-4v-25.7c0-1.8 1.2-3.4 2.8-4 .3-.1.5-.4.5-.6v-7.4c0-.1-.1-.4-.3-.4a.6.6 0 00-.5-.3zm3.5 0c-.3 0-.4 0-.5.2-.2 0-.3.3-.3.4v7.4c0 .3.2.5.5.6 1.7.6 2.8 2.2 2.8 4v25.7c0 1.8-1 3.4-2.8 4-.3 0-.5.3-.5.6v7.3c0 .3.1.4.3.6l.5.1c6.3-.8 11-6.2 11-12.6v-25.7c0-6.4-4.7-11.8-11-12.7zm0 0"/></symbol><symbol id="g" overflow="visible"><path d="M28.7-.8L22-13.2v-.5s0-.2.2-.3a11 11 0 006.4-10v-16.2c0-6-5-11-11-11H14c-.3 0-.6.4-.6.7v7.2c0 .4.3.7.6.7h3.5c1.4 0 2.5 1 2.5 2.4v16.3c0 1.3-1 2.4-2.5 2.4H14c-.3 0-.6.3-.6.7v9.6l.1.2L19.3-.2c.1.1.3.3.5.3h8.5l.4-.3v-.6zM10.8-51.2H3.5c-.3 0-.5.3-.5.6v50c0 .4.2.7.5.7H11c.3 0 .5-.3.5-.6v-50c0-.1 0-.3-.2-.4a.7.7 0 00-.5-.3zm0 0"/></symbol><symbol id="h" overflow="visible"><path d="M14-51A13 13 0 003-38v2.2c0 5.1 2.8 9.8 7.3 12.2l3.6 1.9h.6c.3-.2.4-.4.4-.6v-8.2c0-.3-.1-.5-.4-.5l-.3-.2a5.1 5.1 0 01-2.7-4.6v-2.5c0-1.8 1.2-3.5 3-4l.4-.7v-7.4c0-.1-.1-.4-.3-.4-.1-.2-.3-.3-.5-.2zm.5 42.2c-1.8-.6-3-2.3-3-4.2v-3.7c0-.4-.3-.6-.5-.6H3.5c-.3 0-.5.2-.5.6v3.9C3-6.4 7.7-1 14-.1l.6-.1c.2-.2.3-.3.3-.6V-8c0-.3-.2-.5-.4-.7zm6.9-18.7l-3.6-2c-.3 0-.5 0-.7.2-.2 0-.3.3-.3.5v8.2c0 .2.2.4.4.5l.2.1c1.7 1 2.8 2.8 2.8 4.6v2.6c0 1.8-1.2 3.5-3 4.1-.2 0-.4.3-.4.6v7.3c0 .3 0 .4.2.6l.5.1c6.3-.9 11.2-6.5 11.2-13v-2.3c0-5-2.8-9.7-7.3-12zM17.5-51l-.5.3-.2.4v7.4c0 .3.2.5.4.6 1.8.7 3 2.4 3 4.3v3.4c0 .4.2.7.6.7H28c.3 0 .6-.3.6-.7v-3.6a13 13 0 00-11.2-12.8zm0 0"/></symbol><symbol id="i" overflow="visible"><path d="M28-51h-7.3c-.4 0-.7.2-.7.6V-28c0 .1 0 .2-.2.2-.1.1-.2 0-.3-.1l-5.5-18-.3-.2c-.2 0-.3.2-.3.3v26.5l.1.8 5.6 18c.1.2.3.5.6.5h8.9v-50.5c0-.2-.1-.4-.3-.5a1 1 0 00-.4-.2zm-17.2 0H3.6c-.3 0-.6.2-.6.6V-.6c0 .4.3.7.7.7h7.1c.4 0 .7-.3.7-.6v-50c0-.3-.3-.6-.7-.6zm0 0"/></symbol><symbol id="j" overflow="visible"><path d="M10.8 0c.4 0 .7-.2.7-.6v-49.9c0-.3-.3-.7-.7-.7H3.6c-.3 0-.6.4-.6.7v50c0 .3.3.6.6.6zm0 0"/></symbol><symbol id="k" overflow="visible"><path d="M31.4-.8l-8.2-45.4c-.1-.3-.4-.5-.7-.5s-.6.2-.7.5l-3.6 20.1v.2l1.4 7.9-.1.5-.5.3h-2c-.2 0-.5.2-.5.5l-1.3 7.2.1.6.5.2h5c.3 0 .6.2.6.6l1.4 7.6c0 .3.3.6.7.6h7.3c.2 0 .3-.2.5-.3l.1-.6zM20-51.1h-7.3c-.3 0-.6.3-.7.6L3-.7c0 .2 0 .3.2.5l.4.3H11c.3 0 .5-.3.6-.6l9-50c.1 0 0-.3 0-.4a.8.8 0 00-.6-.3zm0 0"/></symbol><symbol id="l" overflow="visible"><path d="M19.4 0c.4 0 .7-.2.7-.6V-40c0-.3-.3-.7-.7-.7h-7.2c-.4 0-.7.4-.7.7V-.6c0 .4.3.7.7.7zM28-42.5c.4 0 .7-.3.7-.7v-7.1c0-.4-.3-.7-.7-.7H3.6c-.3 0-.6.3-.6.7v7.1c0 .4.3.7.6.7zm0 0"/></symbol><symbol id="m" overflow="visible"><path d="M14.3-8.7a4.5 4.5 0 01-2.8-4.1v-37.7c0-.3-.3-.7-.7-.7H3.6c-.3 0-.6.4-.6.7v37.8C3-6.3 7.7-1 14 0l.5-.1c.2-.2.3-.3.3-.6V-8c0-.3-.3-.5-.5-.6zm13.4-42.5h-7.2c-.3 0-.6.4-.6.7v37.8c0 1.8-1.1 3.4-2.8 4-.3 0-.4.3-.4.6v7.3c0 .3 0 .4.2.6l.5.1a13 13 0 0011-12.9v-37.5c0-.3-.3-.7-.6-.7zm0 0"/></symbol><use x="18" xlink:href="#a" y="88"/><use x="32.5" xlink:href="#b" y="88"/><use x="43.8" xlink:href="#c" y="88"/><use x="75.3" xlink:href="#d" y="88"/><use x="107" xlink:href="#e" y="88"/><use x="138.8" xlink:href="#f" y="88"/><use x="170.5" xlink:href="#g" y="88"/><use x="202.3" xlink:href="#h" y="88"/><use x="234.2" xlink:href="#c" y="88"/><use x="265.6" xlink:href="#b" y="88"/><use x="276.9" xlink:href="#i" y="88"/><use x="308.6" xlink:href="#j" y="88"/><use x="323.1" xlink:href="#d" y="88"/><use x="354.8" xlink:href="#k" y="88"/><use x="389.3" xlink:href="#b" y="88"/><use x="400.5" xlink:href="#l" y="88"/><use x="432.3" xlink:href="#m" y="88"/><use x="463.8" xlink:href="#g" y="88"/><use x="495.7" xlink:href="#d" y="88"/><use x="527.3" xlink:href="#c" y="88"/><use x="558.8" xlink:href="#g" y="88"/></svg>